<svg width="200" height="71" viewBox="0 0 200 71" fill="none" xmlns="http://www.w3.org/2000/svg">
<path d="M165 0H35C15.67 0 0 15.67 0 35C0 54.33 15.67 70 35 70H165C184.33 70 200 54.33 200 35C200 15.67 184.33 0 165 0Z" fill="#CA6500"/>
<path d="M25 0H35L-5 71H-15L25 0Z" fill="#010101"/>
<path d="M185 0H195L155 71H145L185 0Z" fill="#010101"/>
<path d="M205 0H215L175 71H165L205 0Z" fill="#010101"/>
<path d="M45 0H55L15 71H5L45 0Z" fill="#010101"/>
<path d="M65 0H75L35 71H25L65 0Z" fill="#010101"/>
<path d="M85 0H95L55 71H45L85 0Z" fill="#010101"/>
<path d="M105 0H115L75 71H65L105 0Z" fill="#010101"/>
<path d="M125 0H135L95 71H85L125 0Z" fill="#010101"/>
<path d="M145 0H155L115 71H105L145 0Z" fill="#010101"/>
<path d="M165 0H175L135 71H125L165 0Z" fill="#010101"/>
</svg>
