<svg width="353" height="353" viewBox="0 0 353 353" fill="none" xmlns="http://www.w3.org/2000/svg">
<path d="M0 176.5C0 79.0217 79.0217 0 176.5 0C273.978 0 353 79.0217 353 176.5C353 273.978 273.978 353 176.5 353C79.0217 353 0 273.978 0 176.5Z" fill="#FFE501"/>
<mask id="mask0_1_14" style="mask-type:alpha" maskUnits="userSpaceOnUse" x="10" y="10" width="333" height="324">
<path fill-rule="evenodd" clip-rule="evenodd" d="M176.5 10C84.5446 10 10 84.5446 10 176.5C10 248.739 56.005 310.233 120.315 333.282C128.472 309.831 150.77 293 177 293C203.11 293 225.324 309.678 233.572 332.961C297.418 309.666 343 248.406 343 176.5C343 84.5446 268.455 10 176.5 10Z" fill="white"/>
</mask>
<g mask="url(#mask0_1_14)">
<path fill-rule="evenodd" clip-rule="evenodd" d="M176.5 10C84.5446 10 10 84.5446 10 176.5C10 248.739 56.005 310.233 120.315 333.282C128.472 309.831 150.77 293 177 293C203.11 293 225.324 309.678 233.572 332.961C297.418 309.666 343 248.406 343 176.5C343 84.5446 268.455 10 176.5 10Z" fill="#FFE501"/>
<path d="M120.315 333.282L119.64 335.165L121.541 335.846L122.204 333.939L120.315 333.282ZM233.572 332.961L231.687 333.629L232.361 335.532L234.258 334.84L233.572 332.961ZM12 176.5C12 85.6492 85.6492 12 176.5 12V8C83.44 8 8 83.44 8 176.5H12ZM120.99 331.399C57.4495 308.626 12 247.868 12 176.5H8C8 249.61 54.5605 311.84 119.64 335.165L120.99 331.399ZM122.204 333.939C130.09 311.267 151.648 295 177 295V291C149.893 291 126.854 308.395 118.426 332.625L122.204 333.939ZM177 295C202.236 295 223.713 311.119 231.687 333.629L235.457 332.293C226.936 308.236 203.983 291 177 291V295ZM341 176.5C341 247.539 295.968 308.066 232.887 331.082L234.258 334.84C298.867 311.266 345 249.273 345 176.5H341ZM176.5 12C267.351 12 341 85.6492 341 176.5H345C345 83.44 269.56 8 176.5 8V12Z" fill="#010101"/>
</g>
</svg>
